<?xml version="1.0"?>
<svg xmlns="http://www.w3.org/2000/svg" height="512px" viewBox="0 0 480 480" width="512px"><g><path d="m240 0c-132.546875 0-240 107.453125-240 240s107.453125 240 240 240 240-107.453125 240-240c-.148438-132.484375-107.515625-239.851562-240-240zm0 464c-123.710938 0-224-100.289062-224-224s100.289062-224 224-224 224 100.289062 224 224c-.140625 123.652344-100.347656 223.859375-224 224zm0 0" data-original="#000000" class="active-path" data-old_color="#000000" fill="#6332F6"/><path d="m333.3125 136.472656-224 80c-3.253906 1.179688-5.375 4.320313-5.265625 7.777344.113281 3.460938 2.4375 6.453125 5.761719 7.421875l72.039062 20.574219-21.34375 56.914062c-.933594 2.460938-.597656 5.222656.898438 7.390625 1.496094 2.164063 3.964844 3.453125 6.597656 3.449219.960938 0 1.914062-.171875 2.816406-.503906l56.910156-21.34375 20.578126 72.039062c.953124 3.347656 3.960937 5.691406 7.4375 5.800782h.257812c3.378906-.003907 6.390625-2.128907 7.527344-5.3125l80-224c1.035156-2.90625.300781-6.152344-1.882813-8.332032-2.179687-2.183594-5.425781-2.917968-8.332031-1.882812zm-28.121094 27.023438-83.519531 83.519531-83.511719-23.816406zm-123.519531 134.832031 15.617187-41.601563 20.238282 5.785157 5.785156 20.242187zm75.199219 43.511719-23.886719-83.511719 83.519531-83.519531zm0 0" data-original="#000000" class="active-path" data-old_color="#000000" fill="#6332F6"/></g> </svg>
